<?xml version="1.0" encoding="UTF-8" standalone="no"?>
<!DOCTYPE svg PUBLIC "-//W3C//DTD SVG 1.1//EN"
 "http://www.w3.org/Graphics/SVG/1.1/DTD/svg11.dtd">
<!-- Generated by graphviz version 5.0.0 (20220707.1540)
 -->
<!-- Title: UmlClassDiagram Pages: 1 -->
<svg width="851pt" height="1029pt"
 viewBox="0.00 0.00 851.47 1029.20" xmlns="http://www.w3.org/2000/svg" xmlns:xlink="http://www.w3.org/1999/xlink">
<g id="graph0" class="graph" transform="scale(1 1) rotate(0) translate(4 1025.2)">
<title>UmlClassDiagram</title>
<polygon fill="white" stroke="transparent" points="-4,4 -4,-1025.2 847.47,-1025.2 847.47,4 -4,4"/>
<!-- 1 -->
<g id="node1" class="node">
<title>1</title>
<polygon fill="#f2f2f2" stroke="black" points="358.5,-512.3 358.5,-612.3 489.17,-612.3 489.17,-512.3 358.5,-512.3"/>
<text text-anchor="middle" x="423.84" y="-595.7" font-family="Times,serif" font-size="14.00">&lt;&lt;Struct&gt;&gt;</text>
<text text-anchor="middle" x="423.84" y="-578.9" font-family="Times,serif" font-size="14.00">G1Point</text>
<text text-anchor="middle" x="423.84" y="-562.1" font-family="Times,serif" font-size="14.00">contractsVerifier.sol</text>
<polyline fill="none" stroke="black" points="358.5,-553.9 489.17,-553.9 "/>
<text text-anchor="start" x="366.5" y="-537.3" font-family="Times,serif" font-size="14.00">X: uint</text>
<text text-anchor="start" x="366.5" y="-520.5" font-family="Times,serif" font-size="14.00">Y: uint</text>
</g>
<!-- 0 -->
<g id="node3" class="node">
<title>0</title>
<polygon fill="#f2f2f2" stroke="black" points="56.29,-649.3 56.29,-883.7 791.38,-883.7 791.38,-649.3 56.29,-649.3"/>
<text text-anchor="middle" x="423.84" y="-867.1" font-family="Times,serif" font-size="14.00">&lt;&lt;Library&gt;&gt;</text>
<text text-anchor="middle" x="423.84" y="-850.3" font-family="Times,serif" font-size="14.00">Pairing</text>
<text text-anchor="middle" x="423.84" y="-833.5" font-family="Times,serif" font-size="14.00">contractsVerifier.sol</text>
<polyline fill="none" stroke="black" points="56.29,-825.3 791.38,-825.3 "/>
<text text-anchor="start" x="64.29" y="-808.7" font-family="Times,serif" font-size="14.00">Internal:</text>
<text text-anchor="start" x="64.29" y="-791.9" font-family="Times,serif" font-size="14.00"> &#160;&#160;&#160;P1(): G1Point</text>
<text text-anchor="start" x="64.29" y="-775.1" font-family="Times,serif" font-size="14.00"> &#160;&#160;&#160;P2(): G2Point</text>
<text text-anchor="start" x="64.29" y="-758.3" font-family="Times,serif" font-size="14.00"> &#160;&#160;&#160;negate(p: G1Point): G1Point</text>
<text text-anchor="start" x="64.29" y="-741.5" font-family="Times,serif" font-size="14.00"> &#160;&#160;&#160;addition(p1: G1Point, p2: G1Point): (r: G1Point)</text>
<text text-anchor="start" x="64.29" y="-724.7" font-family="Times,serif" font-size="14.00"> &#160;&#160;&#160;scalar_mul(p: G1Point, s: uint): (r: G1Point)</text>
<text text-anchor="start" x="64.29" y="-707.9" font-family="Times,serif" font-size="14.00"> &#160;&#160;&#160;pairing(p1: G1Point[], p2: G2Point[]): bool</text>
<text text-anchor="start" x="64.29" y="-691.1" font-family="Times,serif" font-size="14.00"> &#160;&#160;&#160;pairingProd2(a1: G1Point, a2: G2Point, b1: G1Point, b2: G2Point): bool</text>
<text text-anchor="start" x="64.29" y="-674.3" font-family="Times,serif" font-size="14.00"> &#160;&#160;&#160;pairingProd3(a1: G1Point, a2: G2Point, b1: G1Point, b2: G2Point, c1: G1Point, c2: G2Point): bool</text>
<text text-anchor="start" x="64.29" y="-657.5" font-family="Times,serif" font-size="14.00"> &#160;&#160;&#160;pairingProd4(a1: G1Point, a2: G2Point, b1: G1Point, b2: G2Point, c1: G1Point, c2: G2Point, d1: G1Point, d2: G2Point): bool</text>
</g>
<!-- 1&#45;&gt;0 -->
<g id="edge1" class="edge">
<title>1&#45;&gt;0</title>
<path fill="none" stroke="black" d="M417.95,-612.51C417.67,-620.21 417.45,-628.47 417.31,-637.01"/>
<polygon fill="black" stroke="black" points="417.31,-637.25 421.23,-643.3 417.15,-649.25 413.23,-643.2 417.31,-637.25"/>
</g>
<!-- 2 -->
<g id="node2" class="node">
<title>2</title>
<polygon fill="#f2f2f2" stroke="black" points="358.5,-920.7 358.5,-1020.7 489.17,-1020.7 489.17,-920.7 358.5,-920.7"/>
<text text-anchor="middle" x="423.84" y="-1004.1" font-family="Times,serif" font-size="14.00">&lt;&lt;Struct&gt;&gt;</text>
<text text-anchor="middle" x="423.84" y="-987.3" font-family="Times,serif" font-size="14.00">G2Point</text>
<text text-anchor="middle" x="423.84" y="-970.5" font-family="Times,serif" font-size="14.00">contractsVerifier.sol</text>
<polyline fill="none" stroke="black" points="358.5,-962.3 489.17,-962.3 "/>
<text text-anchor="start" x="366.5" y="-945.7" font-family="Times,serif" font-size="14.00">X: uint[2]</text>
<text text-anchor="start" x="366.5" y="-928.9" font-family="Times,serif" font-size="14.00">Y: uint[2]</text>
</g>
<!-- 2&#45;&gt;0 -->
<g id="edge2" class="edge">
<title>2&#45;&gt;0</title>
<path fill="none" stroke="black" d="M429.72,-920.54C430,-912.86 430.21,-904.64 430.36,-896.13"/>
<polygon fill="black" stroke="black" points="430.36,-895.95 426.44,-889.9 430.52,-883.95 434.44,-890 430.36,-895.95"/>
</g>
<!-- 0&#45;&gt;1 -->
<g id="edge3" class="edge">
<title>0&#45;&gt;1</title>
<path fill="none" stroke="black" stroke-dasharray="5,2" d="M430.52,-649.25C430.44,-640.1 430.28,-631.12 430.04,-622.62"/>
<polygon fill="black" stroke="black" points="433.54,-622.39 429.72,-612.51 426.54,-622.61 433.54,-622.39"/>
</g>
<!-- 0&#45;&gt;2 -->
<g id="edge4" class="edge">
<title>0&#45;&gt;2</title>
<path fill="none" stroke="black" stroke-dasharray="5,2" d="M417.16,-883.95C417.24,-893.06 417.4,-902 417.63,-910.47"/>
<polygon fill="black" stroke="black" points="414.13,-910.66 417.95,-920.54 421.13,-910.43 414.13,-910.66"/>
</g>
<!-- 4 -->
<g id="node4" class="node">
<title>4</title>
<polygon fill="#f2f2f2" stroke="black" points="284.35,-0.5 284.35,-150.9 475.32,-150.9 475.32,-0.5 284.35,-0.5"/>
<text text-anchor="middle" x="379.84" y="-134.3" font-family="Times,serif" font-size="14.00">&lt;&lt;Struct&gt;&gt;</text>
<text text-anchor="middle" x="379.84" y="-117.5" font-family="Times,serif" font-size="14.00">VerifyingKey</text>
<text text-anchor="middle" x="379.84" y="-100.7" font-family="Times,serif" font-size="14.00">contractsVerifier.sol</text>
<polyline fill="none" stroke="black" points="284.35,-92.5 475.32,-92.5 "/>
<text text-anchor="start" x="292.35" y="-75.9" font-family="Times,serif" font-size="14.00">alpha: Pairing.G1Point</text>
<text text-anchor="start" x="292.35" y="-59.1" font-family="Times,serif" font-size="14.00">beta: Pairing.G2Point</text>
<text text-anchor="start" x="292.35" y="-42.3" font-family="Times,serif" font-size="14.00">gamma: Pairing.G2Point</text>
<text text-anchor="start" x="292.35" y="-25.5" font-family="Times,serif" font-size="14.00">delta: Pairing.G2Point</text>
<text text-anchor="start" x="292.35" y="-8.7" font-family="Times,serif" font-size="14.00">gamma_abc: Pairing.G1Point[]</text>
</g>
<!-- 4&#45;&gt;1 -->
<g id="edge6" class="edge">
<title>4&#45;&gt;1</title>
<path fill="none" stroke="black" stroke-dasharray="5,2" d="M326.79,-150.95C320.64,-162.68 315.33,-175.03 311.84,-187.4 295.57,-244.97 298.85,-263.6 311.84,-322 326.43,-387.62 361.02,-456.54 387.93,-503.47"/>
<polygon fill="black" stroke="black" points="384.99,-505.36 393.03,-512.26 391.04,-501.85 384.99,-505.36"/>
</g>
<!-- 4&#45;&gt;2 -->
<g id="edge7" class="edge">
<title>4&#45;&gt;2</title>
<path fill="none" stroke="black" stroke-dasharray="5,2" d="M284.12,-118.61C179.88,-171.49 27.84,-273.11 27.84,-415.9 27.84,-415.9 27.84,-415.9 27.84,-563.3 27.84,-706.17 -45.58,-775.24 46.84,-884.2 85.1,-929.31 249.39,-952.83 348.03,-963.11"/>
<polygon fill="black" stroke="black" points="347.94,-966.62 358.25,-964.15 348.65,-959.66 347.94,-966.62"/>
</g>
<!-- 4&#45;&gt;0 -->
<g id="edge5" class="edge">
<title>4&#45;&gt;0</title>
<path fill="none" stroke="black" stroke-dasharray="5,2" d="M314.41,-151.09C307.23,-162.61 301.01,-174.87 296.84,-187.4 277.92,-244.15 292.59,-262.33 296.84,-322 306.1,-452.26 296.96,-489.11 338.84,-612.8 341.87,-621.76 345.42,-630.8 349.33,-639.77"/>
<polygon fill="black" stroke="black" points="346.22,-641.4 353.52,-649.09 352.61,-638.53 346.22,-641.4"/>
</g>
<!-- 3 -->
<g id="node6" class="node">
<title>3</title>
<polygon fill="#f2f2f2" stroke="black" points="320.81,-187.9 320.81,-321.5 612.86,-321.5 612.86,-187.9 320.81,-187.9"/>
<text text-anchor="middle" x="466.84" y="-304.9" font-family="Times,serif" font-size="14.00">Verifier</text>
<text text-anchor="middle" x="466.84" y="-288.1" font-family="Times,serif" font-size="14.00">contractsVerifier.sol</text>
<polyline fill="none" stroke="black" points="320.81,-279.9 612.86,-279.9 "/>
<text text-anchor="start" x="328.81" y="-263.3" font-family="Times,serif" font-size="14.00">Internal:</text>
<text text-anchor="start" x="328.81" y="-246.5" font-family="Times,serif" font-size="14.00"> &#160;&#160;&#160;verifyingKey(): (vk: VerifyingKey)</text>
<text text-anchor="start" x="328.81" y="-229.7" font-family="Times,serif" font-size="14.00"> &#160;&#160;&#160;verify(input: uint[], proof: Proof): uint</text>
<text text-anchor="start" x="328.81" y="-212.9" font-family="Times,serif" font-size="14.00">Public:</text>
<text text-anchor="start" x="328.81" y="-196.1" font-family="Times,serif" font-size="14.00"> &#160;&#160;&#160;verifyTx(proof: Proof, input: uint[2]): (r: bool)</text>
</g>
<!-- 4&#45;&gt;3 -->
<g id="edge11" class="edge">
<title>4&#45;&gt;3</title>
<path fill="none" stroke="black" d="M409.68,-150.99C413.8,-159.58 418.1,-168.34 422.42,-176.95"/>
<polygon fill="black" stroke="black" points="422.46,-177.04 428.74,-180.6 427.87,-187.76 421.6,-184.2 422.46,-177.04"/>
</g>
<!-- 5 -->
<g id="node5" class="node">
<title>5</title>
<polygon fill="#f2f2f2" stroke="black" points="426.5,-358.5 426.5,-475.3 557.17,-475.3 557.17,-358.5 426.5,-358.5"/>
<text text-anchor="middle" x="491.84" y="-458.7" font-family="Times,serif" font-size="14.00">&lt;&lt;Struct&gt;&gt;</text>
<text text-anchor="middle" x="491.84" y="-441.9" font-family="Times,serif" font-size="14.00">Proof</text>
<text text-anchor="middle" x="491.84" y="-425.1" font-family="Times,serif" font-size="14.00">contractsVerifier.sol</text>
<polyline fill="none" stroke="black" points="426.5,-416.9 557.17,-416.9 "/>
<text text-anchor="start" x="434.5" y="-400.3" font-family="Times,serif" font-size="14.00">a: Pairing.G1Point</text>
<text text-anchor="start" x="434.5" y="-383.5" font-family="Times,serif" font-size="14.00">b: Pairing.G2Point</text>
<text text-anchor="start" x="434.5" y="-366.7" font-family="Times,serif" font-size="14.00">c: Pairing.G1Point</text>
</g>
<!-- 5&#45;&gt;1 -->
<g id="edge9" class="edge">
<title>5&#45;&gt;1</title>
<path fill="none" stroke="black" stroke-dasharray="5,2" d="M464.57,-475.4C460.29,-484.42 455.87,-493.76 451.58,-502.8"/>
<polygon fill="black" stroke="black" points="448.29,-501.56 447.17,-512.09 454.62,-504.56 448.29,-501.56"/>
</g>
<!-- 5&#45;&gt;2 -->
<g id="edge10" class="edge">
<title>5&#45;&gt;2</title>
<path fill="none" stroke="black" stroke-dasharray="5,2" d="M557.41,-444.87C632.06,-479.6 750.21,-547.77 800.84,-648.8 847.71,-742.34 866.12,-802.45 800.84,-884.2 763.84,-930.53 598.33,-953.63 499.33,-963.5"/>
<polygon fill="black" stroke="black" points="498.98,-960.02 489.37,-964.48 499.66,-966.99 498.98,-960.02"/>
</g>
<!-- 5&#45;&gt;0 -->
<g id="edge8" class="edge">
<title>5&#45;&gt;0</title>
<path fill="none" stroke="black" stroke-dasharray="5,2" d="M501.2,-475.36C505.75,-514.57 508.25,-567.43 497.84,-612.8 495.8,-621.66 493.19,-630.59 490.15,-639.47"/>
<polygon fill="black" stroke="black" points="486.79,-638.47 486.71,-649.06 493.38,-640.83 486.79,-638.47"/>
</g>
<!-- 5&#45;&gt;3 -->
<g id="edge12" class="edge">
<title>5&#45;&gt;3</title>
<path fill="none" stroke="black" d="M489.37,-358.41C488.3,-350.43 487.09,-342.13 485.78,-333.85"/>
<polygon fill="black" stroke="black" points="485.74,-333.63 480.83,-328.35 483.81,-321.78 488.72,-327.06 485.74,-333.63"/>
</g>
<!-- 3&#45;&gt;1 -->
<g id="edge16" class="edge">
<title>3&#45;&gt;1</title>
<path fill="none" stroke="black" stroke-dasharray="5,2" d="M430.08,-321.55C425.02,-333.37 420.61,-345.81 417.84,-358 407.02,-405.62 409.64,-461.11 414.34,-502.08"/>
<polygon fill="black" stroke="black" points="410.88,-502.66 415.57,-512.16 417.83,-501.81 410.88,-502.66"/>
</g>
<!-- 3&#45;&gt;0 -->
<g id="edge13" class="edge">
<title>3&#45;&gt;0</title>
<path fill="none" stroke="black" stroke-dasharray="5,2" d="M425.37,-321.63C396.82,-371.62 361.94,-443.2 349.84,-511.8 342.04,-556.01 339.79,-569.05 349.84,-612.8 351.87,-621.66 354.49,-630.59 357.52,-639.47"/>
<polygon fill="black" stroke="black" points="354.29,-640.83 360.96,-649.06 360.88,-638.47 354.29,-640.83"/>
</g>
<!-- 3&#45;&gt;4 -->
<g id="edge14" class="edge">
<title>3&#45;&gt;4</title>
<path fill="none" stroke="black" stroke-dasharray="5,2" d="M440.97,-187.76C436.72,-178.77 432.2,-169.45 427.62,-160.2"/>
<polygon fill="black" stroke="black" points="430.62,-158.38 423.03,-150.99 424.36,-161.51 430.62,-158.38"/>
</g>
<!-- 3&#45;&gt;5 -->
<g id="edge15" class="edge">
<title>3&#45;&gt;5</title>
<path fill="none" stroke="black" stroke-dasharray="5,2" d="M470.49,-321.78C471.75,-330.61 473.16,-339.68 474.65,-348.53"/>
<polygon fill="black" stroke="black" points="471.2,-349.15 476.36,-358.41 478.1,-347.96 471.2,-349.15"/>
</g>
</g>
</svg>
