<?xml version="1.0" encoding="UTF-8" standalone="no"?>
<!DOCTYPE svg PUBLIC "-//W3C//DTD SVG 1.1//EN"
 "http://www.w3.org/Graphics/SVG/1.1/DTD/svg11.dtd">
<!-- Generated by graphviz version 5.0.0 (20220707.1540)
 -->
<!-- Title: UmlClassDiagram Pages: 1 -->
<svg width="677pt" height="713pt"
 viewBox="0.00 0.00 676.86 712.80" xmlns="http://www.w3.org/2000/svg" xmlns:xlink="http://www.w3.org/1999/xlink">
<g id="graph0" class="graph" transform="scale(1 1) rotate(0) translate(4 708.8)">
<title>UmlClassDiagram</title>
<polygon fill="white" stroke="transparent" points="-4,4 -4,-708.8 672.86,-708.8 672.86,4 -4,4"/>
<!-- 1 -->
<g id="node1" class="node">
<title>1</title>
<polygon fill="#f2f2f2" stroke="black" points="236.82,-0.5 236.82,-100.5 432.04,-100.5 432.04,-0.5 236.82,-0.5"/>
<text text-anchor="middle" x="334.43" y="-83.9" font-family="Times,serif" font-size="14.00">&lt;&lt;Struct&gt;&gt;</text>
<text text-anchor="middle" x="334.43" y="-67.1" font-family="Times,serif" font-size="14.00">Solution</text>
<text text-anchor="middle" x="334.43" y="-50.3" font-family="Times,serif" font-size="14.00">contractsSolnSquareVerifier.sol</text>
<polyline fill="none" stroke="black" points="236.82,-42.1 432.04,-42.1 "/>
<text text-anchor="start" x="244.82" y="-25.5" font-family="Times,serif" font-size="14.00">index: uint256</text>
<text text-anchor="start" x="244.82" y="-8.7" font-family="Times,serif" font-size="14.00">solutionAddress: address</text>
</g>
<!-- 0 -->
<g id="node2" class="node">
<title>0</title>
<polygon fill="#f2f2f2" stroke="black" points="0,-137.5 0,-413.5 668.86,-413.5 668.86,-137.5 0,-137.5"/>
<text text-anchor="middle" x="334.43" y="-396.9" font-family="Times,serif" font-size="14.00">SolnSquareVerifier</text>
<text text-anchor="middle" x="334.43" y="-380.1" font-family="Times,serif" font-size="14.00">contractsSolnSquareVerifier.sol</text>
<polyline fill="none" stroke="black" points="0,-371.9 668.86,-371.9 "/>
<text text-anchor="start" x="8" y="-355.3" font-family="Times,serif" font-size="14.00">Private:</text>
<text text-anchor="start" x="8" y="-338.5" font-family="Times,serif" font-size="14.00"> &#160;&#160;_squareSolutionVerArr: Solution[]</text>
<text text-anchor="start" x="8" y="-321.7" font-family="Times,serif" font-size="14.00">Public:</text>
<text text-anchor="start" x="8" y="-304.9" font-family="Times,serif" font-size="14.00"> &#160;&#160;verifierContract: ISolVerifier</text>
<text text-anchor="start" x="8" y="-288.1" font-family="Times,serif" font-size="14.00"> &#160;&#160;_uniqueSquareSolution: mapping(bytes32=&gt;Solution)</text>
<polyline fill="none" stroke="black" points="0,-279.9 668.86,-279.9 "/>
<text text-anchor="start" x="8" y="-263.3" font-family="Times,serif" font-size="14.00">External:</text>
<text text-anchor="start" x="8" y="-246.5" font-family="Times,serif" font-size="14.00"> &#160;&#160;&#160;getUniqueSquareSolution(key: bytes32): address</text>
<text text-anchor="start" x="8" y="-229.7" font-family="Times,serif" font-size="14.00">Public:</text>
<text text-anchor="start" x="8" y="-212.9" font-family="Times,serif" font-size="14.00"> &#160;&#160;&#160;&lt;&lt;event&gt;&gt; solutionAdded(key: bytes32, toAddress: address, tokenId: uint256)</text>
<text text-anchor="start" x="8" y="-196.1" font-family="Times,serif" font-size="14.00"> &#160;&#160;&#160;constructor(verifierAddress: address, name: string, symbol: string, baseTokenURI: string)</text>
<text text-anchor="start" x="8" y="-179.3" font-family="Times,serif" font-size="14.00"> &#160;&#160;&#160;_addSolution(key: bytes32, toAddress: address, tokenId: uint256)</text>
<text text-anchor="start" x="8" y="-162.5" font-family="Times,serif" font-size="14.00"> &#160;&#160;&#160;_getKey(a: uint256[2], b: uint256[2][2], c: uint256[2], input: uint256[2]): bytes32</text>
<text text-anchor="start" x="8" y="-145.7" font-family="Times,serif" font-size="14.00"> &#160;&#160;&#160;mintNewNFT(to: address, tokenId: uint256, a: uint256[2], b: uint256[2][2], c: uint256[2], input: uint256[2]): bool</text>
</g>
<!-- 1&#45;&gt;0 -->
<g id="edge1" class="edge">
<title>1&#45;&gt;0</title>
<path fill="none" stroke="black" d="M328.72,-100.71C328.44,-108.3 328.21,-116.45 328.04,-124.93"/>
<polygon fill="black" stroke="black" points="328.04,-125.13 331.94,-131.19 327.84,-137.13 323.94,-131.06 328.04,-125.13"/>
</g>
<!-- 0&#45;&gt;1 -->
<g id="edge3" class="edge">
<title>0&#45;&gt;1</title>
<path fill="none" stroke="black" d="M341.02,-137.13C340.9,-128.08 340.72,-119.27 340.48,-110.96"/>
<polygon fill="black" stroke="black" points="343.97,-110.59 340.14,-100.71 336.97,-110.82 343.97,-110.59"/>
</g>
<!-- 3 -->
<g id="node3" class="node">
<title>3</title>
<polygon fill="#f2f2f2" stroke="black" points="329.82,-587.5 329.82,-704.3 525.04,-704.3 525.04,-587.5 329.82,-587.5"/>
<text text-anchor="middle" x="427.43" y="-687.7" font-family="Times,serif" font-size="14.00">&lt;&lt;Struct&gt;&gt;</text>
<text text-anchor="middle" x="427.43" y="-670.9" font-family="Times,serif" font-size="14.00">Proof</text>
<text text-anchor="middle" x="427.43" y="-654.1" font-family="Times,serif" font-size="14.00">contractsSolnSquareVerifier.sol</text>
<polyline fill="none" stroke="black" points="329.82,-645.9 525.04,-645.9 "/>
<text text-anchor="start" x="337.82" y="-629.3" font-family="Times,serif" font-size="14.00">a: Pairing.G1Point</text>
<text text-anchor="start" x="337.82" y="-612.5" font-family="Times,serif" font-size="14.00">b: Pairing.G2Point</text>
<text text-anchor="start" x="337.82" y="-595.7" font-family="Times,serif" font-size="14.00">c: Pairing.G1Point</text>
</g>
<!-- 0&#45;&gt;3 -->
<g id="edge4" class="edge">
<title>0&#45;&gt;3</title>
<path fill="none" stroke="black" stroke-dasharray="5,2" d="M256.63,-413.76C241.1,-459.49 236.07,-509.35 260.43,-551 274.34,-574.78 296.73,-593 320.66,-606.77"/>
<polygon fill="black" stroke="black" points="319.08,-609.9 329.53,-611.65 322.45,-603.76 319.08,-609.9"/>
</g>
<!-- 2 -->
<g id="node4" class="node">
<title>2</title>
<polygon fill="#f2f2f2" stroke="black" points="269.15,-450.5 269.15,-550.5 585.71,-550.5 585.71,-450.5 269.15,-450.5"/>
<text text-anchor="middle" x="427.43" y="-533.9" font-family="Times,serif" font-size="14.00">&lt;&lt;Interface&gt;&gt;</text>
<text text-anchor="middle" x="427.43" y="-517.1" font-family="Times,serif" font-size="14.00">ISolVerifier</text>
<text text-anchor="middle" x="427.43" y="-500.3" font-family="Times,serif" font-size="14.00">contractsSolnSquareVerifier.sol</text>
<polyline fill="none" stroke="black" points="269.15,-492.1 585.71,-492.1 "/>
<text text-anchor="start" x="277.15" y="-475.5" font-family="Times,serif" font-size="14.00">External:</text>
<text text-anchor="start" x="277.15" y="-458.7" font-family="Times,serif" font-size="14.00"> &#160;&#160;&#160;&#160;verifyTx(proof: Proof, input: uint256[2]): (r: bool)</text>
</g>
<!-- 0&#45;&gt;2 -->
<g id="edge2" class="edge">
<title>0&#45;&gt;2</title>
<path fill="none" stroke="black" d="M391.61,-413.6C395.53,-423.01 399.34,-432.15 402.93,-440.76"/>
<polygon fill="black" stroke="black" points="399.8,-442.34 406.88,-450.23 406.26,-439.65 399.8,-442.34"/>
</g>
<!-- 3&#45;&gt;2 -->
<g id="edge5" class="edge">
<title>3&#45;&gt;2</title>
<path fill="none" stroke="black" d="M434.07,-587.06C434.2,-579.09 434.22,-570.88 434.12,-562.85"/>
<polygon fill="black" stroke="black" points="434.12,-562.85 430,-556.93 433.88,-550.85 438,-556.77 434.12,-562.85"/>
</g>
<!-- 2&#45;&gt;3 -->
<g id="edge6" class="edge">
<title>2&#45;&gt;3</title>
<path fill="none" stroke="black" stroke-dasharray="5,2" d="M420.98,-550.85C420.75,-559.24 420.65,-568.07 420.69,-576.84"/>
<polygon fill="black" stroke="black" points="417.19,-577.1 420.79,-587.06 424.19,-577.03 417.19,-577.1"/>
</g>
</g>
</svg>
